<svg xmlns="http://www.w3.org/2000/svg" viewBox="0 0 856.57 538.03"><defs><style>.cls-1{fill:#34b358;}.cls-2{fill:#424242;}.cls-2,.cls-3{stroke:#000;stroke-miterlimit:10;}.cls-3{fill:#ed1c24;}.cls-4{fill:none;}.cls-5{font-size:120px;font-family:ColonnaMT, Colonna MT;}.cls-6{letter-spacing:-0.01em;}.cls-7{letter-spacing:-0.18em;}</style></defs><title>Recurso 1</title><g id="Capa_2" data-name="Capa 2"><g id="Capa_1-2" data-name="Capa 1"><circle class="cls-1" cx="451.82" cy="342.06" r="34.51"/><path class="cls-2" d="M355.74,143.67l32.83-18.89L321.8,8.64l-2.94-5.06a64.5,64.5,0,0,0-15,49.58l49.39,91.73Z"/><rect class="cls-2" x="381.6" y="125.98" width="31.84" height="84.9" transform="translate(-31.04 220.65) rotate(-29.91)"/><path class="cls-2" d="M457.86,256.61,524.63,382.3c3.14,5.91-2,8.83-5.54,3.12l-107.64-176,13.8-7.93Z"/><rect class="cls-2" x="487.73" y="124.7" width="31.84" height="84.9" transform="translate(147.87 -226.58) rotate(29.54)"/><path class="cls-2" d="M458.39,263.93l-74.3,121.4c-3.49,5.71-8.65,2.72-5.51-3.19L475.47,200l13.85,7.84Z"/><path class="cls-2" d="M557,1.68,524.52,64.34,522,75.41c5.64,14.43,13.1,20.5,18.79,23.39,13.13,6.67,33.65,4.9,33.65,4.9h0l4.62-1.13L618.6,35.11c-2.11-16.59-14.16-7.25-14.16-7.25L582.11,69.52c-14.42,3.76-6.58-9.58-6.58-9.58l20.63-41.8a8.45,8.45,0,0,0-15.89-2.08L558.94,57.74c-14.16,10-9.89-9.55-9.89-9.55L571.31,9.54C571.13-4,557,1.68,557,1.68Z"/><rect class="cls-2" x="525.38" y="95.55" width="16.68" height="37.08" transform="translate(125.62 -248.3) rotate(29.54)"/><circle class="cls-3" cx="451.82" cy="342.06" r="28.3"/><rect class="cls-4" x="468.91" y="220.94" width="161.39" height="199.19"/><text class="cls-5" transform="translate(66.75 482.83)">FUSIÓN</text><text class="cls-5" transform="translate(509.29 482.06)">G<tspan class="cls-6" x="71.25" y="0">U</tspan><tspan class="cls-7" x="154.69" y="0">A</tspan><tspan x="214.86" y="0">Y</tspan></text></g></g></svg>