<svg xmlns="http://www.w3.org/2000/svg" viewBox="0 0 627.4 371.77"><defs><style>.cls-1{fill:#34b358;}.cls-2{fill:#434343;}.cls-2,.cls-3{stroke:#000;stroke-miterlimit:10;}.cls-3{fill:#ed1c24;}.cls-4{fill:none;}.cls-5{font-size:90px;font-family:ColonnaMT, Colonna MT;}.cls-6{letter-spacing:-0.01em;}.cls-7{letter-spacing:-0.18em;}.cls-8{font-size:40px;font-family:CenturyGothic, Century Gothic;letter-spacing:0em;}</style></defs><title>Recurso 3</title><g id="Capa_2" data-name="Capa 2"><g id="Capa_1-2" data-name="Capa 1"><circle class="cls-1" cx="298.49" cy="238.3" r="28.37"/><path class="cls-2" d="M234.25,96.23,256.19,83.6,211.55,6l-2-3.39a43.11,43.11,0,0,0-10,33.15l33,61.34Z"/><rect class="cls-2" x="251.53" y="84.41" width="21.29" height="56.77" transform="translate(-21.32 145.75) rotate(-29.91)"/><path class="cls-2" d="M302.53,171.75l44.65,84.05c2.1,3.95-1.38,5.9-3.71,2.09l-72-117.72,9.22-5.3Z"/><rect class="cls-2" x="322.5" y="83.55" width="21.29" height="56.77" transform="translate(98.49 -149.7) rotate(29.54)"/><path class="cls-2" d="M302.88,176.65,253.2,257.82c-2.34,3.82-5.78,1.82-3.68-2.13L314.3,133.88l9.26,5.24Z"/><path class="cls-2" d="M368.8,1.29l-21.7,41.9-1.72,7.4c3.77,9.65,8.76,13.71,12.56,15.64,8.79,4.46,22.51,3.28,22.51,3.28h0l3.09-.76L410,23.64c-1.41-11.09-9.47-4.85-9.47-4.85L385.61,46.65c-9.64,2.52-4.4-6.4-4.4-6.4L395,12.3a5.64,5.64,0,0,0-10.62-1.39L370.12,38.78c-9.47,6.67-6.62-6.39-6.62-6.39L378.39,6.54C378.27-2.51,368.8,1.29,368.8,1.29Z"/><rect class="cls-2" x="347.68" y="64.06" width="11.15" height="24.79" transform="matrix(0.87, 0.49, -0.49, 0.87, 83.61, -164.22)"/><circle class="cls-3" cx="298.49" cy="238.3" r="23.27"/><rect class="cls-4" x="309.91" y="147.9" width="107.92" height="133.19"/><text class="cls-5" transform="translate(28.16 340.52)">FUSIÓN</text><text class="cls-5" transform="translate(343.98 341.01)">G<tspan class="cls-6" x="53.44" y="0">U</tspan><tspan class="cls-7" x="116.02" y="0">A</tspan><tspan x="161.15" y="0">Y</tspan></text><text class="cls-8" transform="translate(124.54 178.74)">URBAN</text><text class="cls-8" transform="translate(337.44 178.74)">FOOD</text></g></g></svg>